<?xml version="1.0" standalone="no"?>
<!DOCTYPE svg PUBLIC "-//W3C//DTD SVG 20010904//EN"
 "http://www.w3.org/TR/2001/REC-SVG-20010904/DTD/svg10.dtd">
<svg version="1.0" xmlns="http://www.w3.org/2000/svg"
 width="570.000000pt" height="570.000000pt" viewBox="0 0 570.000000 570.000000"
 preserveAspectRatio="xMidYMid meet">
<metadata>
Created by potrace 1.11, written by Peter Selinger 2001-2013
</metadata>
<g transform="translate(0.000000,570.000000) scale(0.100000,-0.100000)"
fill="#000000" stroke="none">
<path d="M10 2850 l0 -2850 2845 0 2845 0 0 2850 0 2850 -2845 0 -2845 0 0
-2850z m3669 1866 c7 -8 16 -27 20 -43 l7 -28 155 -1 c382 -3 675 -129 874
-377 156 -195 226 -453 197 -729 -36 -345 -197 -629 -473 -835 l-87 -65 55
-136 c30 -75 74 -191 98 -257 91 -255 210 -506 318 -669 81 -123 211 -251 303
-299 40 -20 81 -37 93 -37 30 0 26 -14 -15 -60 -47 -52 -128 -89 -233 -107
-208 -36 -362 40 -499 246 -80 120 -148 279 -257 601 -79 234 -189 535 -201
549 -2 2 -39 -5 -82 -17 -69 -19 -148 -35 -274 -57 l-38 -6 0 -132 c0 -347 39
-838 74 -927 16 -42 -253 -158 -377 -163 l-62 -2 -22 68 c-41 125 -47 210 -46
587 1 195 6 403 10 462 l8 107 -45 6 c-120 16 -121 16 -132 43 -18 47 -39 186
-33 218 l5 32 105 -5 c103 -6 104 -6 109 18 5 23 30 625 41 974 3 94 8 235 11
314 l6 144 -46 -34 c-68 -48 -157 -145 -210 -226 -40 -62 -106 -205 -106 -230
0 -29 -23 -83 -35 -83 -23 0 -90 65 -126 121 -47 74 -79 170 -79 238 0 147
101 332 247 453 69 58 267 158 383 194 62 20 97 38 130 67 52 46 153 97 191
97 15 0 32 -6 38 -14z m-1675 -126 c8 -9 27 -91 46 -200 17 -102 46 -266 65
-365 63 -337 94 -500 140 -760 127 -702 280 -1271 472 -1754 l65 -163 -38 -40
c-90 -91 -259 -133 -373 -92 -79 28 -95 52 -135 199 -53 196 -186 772 -226
981 -11 57 -15 62 -42 68 -66 13 -536 1 -784 -20 l-82 -7 -47 -156 c-151 -494
-200 -761 -166 -897 12 -45 11 -48 -16 -76 -15 -16 -61 -46 -101 -66 -62 -30
-86 -36 -156 -40 -106 -6 -183 15 -220 59 -50 59 -37 125 126 634 66 209 128
405 138 435 l17 55 -101 1 c-129 1 -181 15 -228 64 -42 45 -68 108 -48 120 18
11 291 78 389 95 46 8 85 16 86 17 1 2 35 104 75 228 160 499 556 1575 587
1597 36 27 211 81 308 96 17 3 76 4 132 3 76 -1 106 -5 117 -16z"/>
<path d="M3682 4273 c-13 -10 -22 -299 -38 -1180 l-7 -381 113 23 c278 59 400
120 539 271 155 168 226 421 192 679 -23 167 -78 283 -190 395 -76 75 -208
147 -324 175 -79 19 -266 30 -285 18z"/>
<path d="M1703 4187 c-6 -17 -52 -147 -103 -287 -50 -140 -161 -461 -245 -713
l-154 -458 32 6 c62 10 374 25 546 25 l174 0 -7 38 c-6 34 -105 659 -190 1196
-19 120 -36 220 -39 222 -2 2 -8 -11 -14 -29z"/>
</g>
</svg>
